<svg xmlns="http://www.w3.org/2000/svg" viewBox="0 0 37 37" shape-rendering="crispEdges"><rect width="37" height="37" fill="#fff"/><path fill="#14232d" d="M2 2h7v1h-7zM20 2h1v1h-1zM23 2h1v1h-1zM28 2h7v1h-7zM2 3h1v1h-1zM8 3h1v1h-1zM10 3h3v1h-3zM14 3h3v1h-3zM19 3h1v1h-1zM24 3h1v1h-1zM28 3h1v1h-1zM34 3h1v1h-1zM2 4h1v1h-1zM4 4h3v1h-3zM8 4h1v1h-1zM10 4h1v1h-1zM12 4h4v1h-4zM17 4h4v1h-4zM22 4h3v1h-3zM26 4h1v1h-1zM28 4h1v1h-1zM30 4h3v1h-3zM34 4h1v1h-1zM2 5h1v1h-1zM4 5h3v1h-3zM8 5h1v1h-1zM10 5h3v1h-3zM14 5h1v1h-1zM17 5h1v1h-1zM23 5h1v1h-1zM26 5h1v1h-1zM28 5h1v1h-1zM30 5h3v1h-3zM34 5h1v1h-1zM2 6h1v1h-1zM4 6h3v1h-3zM8 6h1v1h-1zM12 6h1v1h-1zM14 6h1v1h-1zM17 6h1v1h-1zM19 6h2v1h-2zM23 6h1v1h-1zM25 6h1v1h-1zM28 6h1v1h-1zM30 6h3v1h-3zM34 6h1v1h-1zM2 7h1v1h-1zM8 7h1v1h-1zM11 7h4v1h-4zM16 7h1v1h-1zM18 7h1v1h-1zM20 7h1v1h-1zM22 7h1v1h-1zM24 7h1v1h-1zM28 7h1v1h-1zM34 7h1v1h-1zM2 8h7v1h-7zM10 8h1v1h-1zM12 8h1v1h-1zM14 8h1v1h-1zM16 8h1v1h-1zM18 8h1v1h-1zM20 8h1v1h-1zM22 8h1v1h-1zM24 8h1v1h-1zM26 8h1v1h-1zM28 8h7v1h-7zM10 9h2v1h-2zM14 9h1v1h-1zM16 9h1v1h-1zM20 9h1v1h-1zM2 10h1v1h-1zM8 10h1v1h-1zM10 10h1v1h-1zM14 10h4v1h-4zM19 10h1v1h-1zM22 10h1v1h-1zM24 10h5v1h-5zM31 10h3v1h-3zM4 11h4v1h-4zM9 11h1v1h-1zM11 11h2v1h-2zM16 11h2v1h-2zM21 11h1v1h-1zM23 11h3v1h-3zM30 11h3v1h-3zM4 12h1v1h-1zM6 12h4v1h-4zM11 12h3v1h-3zM17 12h2v1h-2zM20 12h1v1h-1zM22 12h1v1h-1zM24 12h1v1h-1zM30 12h1v1h-1zM32 12h2v1h-2zM2 13h1v1h-1zM5 13h2v1h-2zM10 13h2v1h-2zM13 13h1v1h-1zM16 13h3v1h-3zM25 13h1v1h-1zM27 13h1v1h-1zM29 13h5v1h-5zM2 14h1v1h-1zM4 14h1v1h-1zM8 14h1v1h-1zM13 14h4v1h-4zM18 14h3v1h-3zM22 14h1v1h-1zM25 14h2v1h-2zM28 14h2v1h-2zM34 14h1v1h-1zM2 15h2v1h-2zM6 15h2v1h-2zM11 15h2v1h-2zM16 15h1v1h-1zM18 15h1v1h-1zM22 15h4v1h-4zM27 15h3v1h-3zM31 15h1v1h-1zM33 15h2v1h-2zM5 16h5v1h-5zM12 16h3v1h-3zM21 16h1v1h-1zM23 16h1v1h-1zM26 16h3v1h-3zM33 16h1v1h-1zM3 17h3v1h-3zM7 17h1v1h-1zM9 17h1v1h-1zM12 17h1v1h-1zM14 17h4v1h-4zM21 17h1v1h-1zM27 17h1v1h-1zM29 17h1v1h-1zM32 17h1v1h-1zM34 17h1v1h-1zM3 18h1v1h-1zM5 18h2v1h-2zM8 18h2v1h-2zM11 18h2v1h-2zM14 18h1v1h-1zM16 18h1v1h-1zM19 18h1v1h-1zM21 18h1v1h-1zM24 18h1v1h-1zM27 18h1v1h-1zM29 18h2v1h-2zM34 18h1v1h-1zM5 19h3v1h-3zM11 19h1v1h-1zM14 19h1v1h-1zM17 19h1v1h-1zM19 19h4v1h-4zM25 19h1v1h-1zM27 19h2v1h-2zM31 19h2v1h-2zM34 19h1v1h-1zM3 20h1v1h-1zM5 20h1v1h-1zM8 20h3v1h-3zM17 20h1v1h-1zM21 20h1v1h-1zM23 20h1v1h-1zM25 20h5v1h-5zM31 20h2v1h-2zM34 20h1v1h-1zM2 21h1v1h-1zM4 21h1v1h-1zM6 21h1v1h-1zM9 21h2v1h-2zM12 21h1v1h-1zM14 21h1v1h-1zM17 21h6v1h-6zM30 21h3v1h-3zM6 22h3v1h-3zM11 22h3v1h-3zM15 22h1v1h-1zM18 22h1v1h-1zM22 22h1v1h-1zM25 22h1v1h-1zM27 22h1v1h-1zM29 22h3v1h-3zM33 22h1v1h-1zM2 23h1v1h-1zM5 23h3v1h-3zM9 23h2v1h-2zM16 23h1v1h-1zM18 23h1v1h-1zM20 23h1v1h-1zM22 23h4v1h-4zM30 23h2v1h-2zM2 24h1v1h-1zM4 24h2v1h-2zM7 24h2v1h-2zM14 24h1v1h-1zM17 24h4v1h-4zM22 24h1v1h-1zM24 24h1v1h-1zM26 24h1v1h-1zM29 24h1v1h-1zM31 24h3v1h-3zM2 25h1v1h-1zM5 25h1v1h-1zM9 25h2v1h-2zM12 25h1v1h-1zM15 25h2v1h-2zM20 25h1v1h-1zM24 25h6v1h-6zM32 25h1v1h-1zM2 26h3v1h-3zM6 26h1v1h-1zM8 26h4v1h-4zM14 26h1v1h-1zM17 26h2v1h-2zM20 26h3v1h-3zM25 26h6v1h-6zM33 26h2v1h-2zM10 27h1v1h-1zM12 27h3v1h-3zM17 27h2v1h-2zM20 27h4v1h-4zM26 27h1v1h-1zM30 27h1v1h-1zM32 27h1v1h-1zM34 27h1v1h-1zM2 28h7v1h-7zM12 28h1v1h-1zM15 28h4v1h-4zM20 28h1v1h-1zM24 28h3v1h-3zM28 28h1v1h-1zM30 28h1v1h-1zM32 28h2v1h-2zM2 29h1v1h-1zM8 29h1v1h-1zM15 29h1v1h-1zM18 29h1v1h-1zM21 29h1v1h-1zM25 29h2v1h-2zM30 29h3v1h-3zM2 30h1v1h-1zM4 30h3v1h-3zM8 30h1v1h-1zM11 30h1v1h-1zM13 30h1v1h-1zM16 30h1v1h-1zM20 30h2v1h-2zM23 30h1v1h-1zM26 30h6v1h-6zM33 30h2v1h-2zM2 31h1v1h-1zM4 31h3v1h-3zM8 31h1v1h-1zM12 31h2v1h-2zM15 31h1v1h-1zM18 31h2v1h-2zM22 31h2v1h-2zM25 31h1v1h-1zM27 31h1v1h-1zM29 31h2v1h-2zM32 31h3v1h-3zM2 32h1v1h-1zM4 32h3v1h-3zM8 32h1v1h-1zM13 32h2v1h-2zM16 32h1v1h-1zM18 32h1v1h-1zM22 32h1v1h-1zM27 32h1v1h-1zM29 32h2v1h-2zM33 32h2v1h-2zM2 33h1v1h-1zM8 33h1v1h-1zM11 33h1v1h-1zM15 33h1v1h-1zM17 33h2v1h-2zM20 33h3v1h-3zM25 33h1v1h-1zM29 33h4v1h-4zM2 34h7v1h-7zM10 34h1v1h-1zM12 34h1v1h-1zM16 34h1v1h-1zM19 34h1v1h-1zM21 34h1v1h-1zM25 34h3v1h-3zM29 34h1v1h-1zM33 34h1v1h-1z"/></svg>
